<svg width="16" height="16" viewBox="0 0 16 16" fill="none" xmlns="http://www.w3.org/2000/svg">
<path d="M13.0854 7.9322C13.0854 10.7782 10.7782 13.0854 7.9322 13.0854C5.08619 13.0854 2.77904 10.7782 2.77904 7.9322C2.77904 5.08619 5.08619 2.77904 7.9322 2.77904C10.7782 2.77904 13.0854 5.08619 13.0854 7.9322ZM9.0399 14.7827C9.0399 14.3684 8.78651 14.0133 8.42626 13.8639C9.7683 13.7536 10.9842 13.1981 11.9259 12.3454C11.9187 12.3936 11.915 12.443 11.915 12.4932C11.915 13.0424 12.3602 13.4875 12.9093 13.4875C12.9492 13.4875 12.9886 13.4852 13.0272 13.4806C11.8897 14.5257 10.4298 15.2256 8.81386 15.414C8.95509 15.2423 9.0399 15.0224 9.0399 14.7827ZM12.9093 11.4989C12.8293 11.4989 12.7515 11.5084 12.6769 11.5262C13.3021 10.7022 13.7175 9.71025 13.8437 8.62998C14.0215 8.89987 14.3272 9.07799 14.6746 9.07799C14.9726 9.07799 15.2401 8.94683 15.4223 8.73908C15.2715 10.1554 14.7281 11.4545 13.9031 12.5254C13.9034 12.5147 13.9036 12.504 13.9036 12.4932C13.9036 11.9441 13.4584 11.4989 12.9093 11.4989ZM14.6746 7.08939C14.343 7.08939 14.0494 7.25166 13.8688 7.50109C13.7985 6.5195 13.4902 5.60377 13.0013 4.81132C13.0699 4.82631 13.1412 4.83421 13.2143 4.83421C13.7635 4.83421 14.2086 4.38904 14.2086 3.83991C14.2086 3.81327 14.2076 3.78687 14.2055 3.76076C14.9198 4.83279 15.3666 6.09832 15.4506 7.46199C15.2684 7.23483 14.9885 7.08939 14.6746 7.08939ZM12.2206 3.80488C11.2019 2.74661 9.79511 2.06452 8.22925 1.98756C8.5736 1.83129 8.81311 1.48445 8.81311 1.08166C8.81311 0.830309 8.71983 0.600738 8.56602 0.425671C10.5357 0.589764 12.2901 1.51171 13.5369 2.89909C13.4357 2.86442 13.3272 2.84561 13.2143 2.84561C12.6769 2.84561 12.2391 3.27197 12.2206 3.80488ZM7.0513 14.7827C7.0513 15.0341 7.14457 15.2637 7.29839 15.4387C5.58241 15.2958 4.02982 14.5776 2.83397 13.4776C2.8799 13.4842 2.92685 13.4875 2.97458 13.4875C3.52371 13.4875 3.96888 13.0424 3.96888 12.4932C3.96888 12.4499 3.96611 12.4073 3.96074 12.3654C4.94541 13.2481 6.22585 13.8076 7.63516 13.8768C7.2908 14.0331 7.0513 14.38 7.0513 14.7827ZM1.98028 12.4932C1.98028 12.513 1.98086 12.5326 1.98199 12.5521C1.14227 11.4722 0.590097 10.1575 0.440419 8.72322C0.622812 8.94013 0.896201 9.07799 1.20179 9.07799C1.54261 9.07799 1.84338 8.9065 2.02253 8.64511C2.1505 9.71719 2.56344 10.7018 3.18346 11.5209C3.11611 11.5065 3.04622 11.4989 2.97458 11.4989C2.42544 11.4989 1.98028 11.9441 1.98028 12.4932ZM1.20179 7.08939C0.880375 7.08939 0.594582 7.2419 0.412822 7.47849C0.491349 6.15667 0.910723 4.92661 1.58427 3.87496C1.60274 4.40786 2.04056 4.83421 2.57797 4.83421C2.68231 4.83421 2.7829 4.81813 2.8774 4.78833C2.38267 5.58207 2.06971 6.50082 1.99673 7.48635C1.81529 7.24528 1.52674 7.08939 1.20179 7.08939ZM2.57797 2.84561C2.50049 2.84561 2.42508 2.85447 2.35271 2.87123C3.54499 1.55758 5.19481 0.666769 7.05054 0.450432C6.90931 0.622126 6.82451 0.841992 6.82451 1.08166C6.82451 1.49596 7.0779 1.85107 7.43815 2.00049C5.91439 2.1257 4.55327 2.82487 3.57142 3.88137C3.57198 3.86762 3.57227 3.8538 3.57227 3.83991C3.57227 3.29077 3.1271 2.84561 2.57797 2.84561ZM1.39732 8.08369C1.39732 8.19168 1.30978 8.27922 1.20179 8.27922C1.0938 8.27922 1.00626 8.19168 1.00626 8.08369C1.00626 7.9757 1.0938 7.88816 1.20179 7.88816C1.30978 7.88816 1.39732 7.9757 1.39732 8.08369ZM2.7735 3.83991C2.7735 3.9479 2.68595 4.03544 2.57797 4.03544C2.46998 4.03544 2.38243 3.9479 2.38243 3.83991C2.38243 3.73192 2.46998 3.64438 2.57797 3.64438C2.68596 3.64438 2.7735 3.73192 2.7735 3.83991ZM13.4099 3.83991C13.4099 3.9479 13.3223 4.03544 13.2143 4.03544C13.1063 4.03544 13.0188 3.9479 13.0188 3.83991C13.0188 3.73192 13.1063 3.64438 13.2143 3.64438C13.3223 3.64438 13.4099 3.73192 13.4099 3.83991ZM13.1048 12.4932C13.1048 12.6012 13.0173 12.6888 12.9093 12.6888C12.8013 12.6888 12.7138 12.6012 12.7138 12.4932C12.7138 12.3852 12.8013 12.2977 12.9093 12.2977C13.0173 12.2977 13.1048 12.3852 13.1048 12.4932ZM3.17011 12.4932C3.17011 12.6012 3.08257 12.6888 2.97458 12.6888C2.86659 12.6888 2.77905 12.6012 2.77905 12.4932C2.77905 12.3852 2.86659 12.2977 2.97458 12.2977C3.08257 12.2977 3.17011 12.3852 3.17011 12.4932ZM8.01434 1.08166C8.01434 1.18965 7.9268 1.2772 7.81881 1.2772C7.71082 1.2772 7.62328 1.18965 7.62328 1.08166C7.62328 0.973675 7.71082 0.886133 7.81881 0.886133C7.9268 0.886133 8.01434 0.973675 8.01434 1.08166ZM8.24113 14.7827C8.24113 14.8907 8.15359 14.9783 8.0456 14.9783C7.93761 14.9783 7.85007 14.8907 7.85007 14.7827C7.85007 14.6748 7.93761 14.5872 8.0456 14.5872C8.15359 14.5872 8.24113 14.6748 8.24113 14.7827ZM14.8701 8.08369C14.8701 8.19168 14.7826 8.27922 14.6746 8.27922C14.5666 8.27922 14.479 8.19168 14.479 8.08369C14.479 7.9757 14.5666 7.88816 14.6746 7.88816C14.7826 7.88816 14.8701 7.9757 14.8701 8.08369Z" stroke="white" stroke-width="0.798767"/>
</svg>
