<svg width="17" height="16" viewBox="0 0 17 16" fill="none" xmlns="http://www.w3.org/2000/svg">
<path fill-rule="evenodd" clip-rule="evenodd" d="M2.27173 0.963386C1.38335 1.45401 -1.14985 4.1151 3.58229 10.1465C8.56952 16.5026 13.3105 16.238 14.2604 15.808L10.9004 11.6411C10.0999 11.9844 9.43151 11.4191 8.20009 10.1919C8.1825 10.1819 5.79004 7.23215 5.78125 7.19215C5.28868 6.39956 4.89281 5.5923 5.71961 5.22966L2.27173 0.963386ZM16.3098 14.9301C16.3916 14.895 16.4633 14.8477 16.5207 14.7912C16.578 14.7346 16.6198 14.67 16.6436 14.601C16.6674 14.532 16.6727 14.4601 16.6592 14.3895C16.6457 14.319 16.6136 14.2512 16.5649 14.1902C16.5649 14.1902 13.9438 10.9438 13.935 10.9425C13.8326 10.8187 13.6708 10.73 13.4837 10.6949C13.2966 10.6598 13.0989 10.6812 12.9322 10.7545L11.3313 11.4518L14.7002 15.6294L16.301 14.9335H16.3098V14.9301ZM7.76911 4.34441C7.85216 4.31042 7.92511 4.26386 7.98342 4.20761C8.04173 4.15136 8.08416 4.08662 8.10808 4.01742C8.132 3.94822 8.13689 3.87604 8.12246 3.80534C8.10803 3.73465 8.07451 3.66696 8.02411 3.60648L5.32385 0.264782C5.22177 0.1408 5.06004 0.0517846 4.87289 0.0165749C4.68574 -0.0186348 4.48785 0.00272595 4.32111 0.0761347L2.72032 0.774069L6.15941 5.04435C6.15941 5.04435 7.76911 4.35108 7.76911 4.34908V4.34441Z" fill="#629FDA"/>
</svg>
