<svg width="25" height="20" viewBox="0 0 25 20" fill="none" xmlns="http://www.w3.org/2000/svg">
<path fill-rule="evenodd" clip-rule="evenodd" d="M3.14982 2.36529C4.52054 1.24304 6.26682 0.478779 8.16801 0.169171C10.0692 -0.140437 12.0399 0.0184975 13.8308 0.625894C15.6216 1.23329 17.1523 2.26187 18.2292 3.58154C19.3061 4.90122 19.881 6.45273 19.881 8.03988C19.881 9.62704 19.3061 11.1785 18.2292 12.4982C17.1523 13.8179 15.6216 14.8465 13.8308 15.4539C12.0399 16.0613 10.0692 16.2202 8.16801 15.9106C6.26682 15.601 4.52054 14.8367 3.14982 13.7145C1.31407 12.2085 0.283081 10.1676 0.283081 8.03988C0.283081 5.91213 1.31407 3.8713 3.14982 2.36529ZM4.88955 3.78469C5.91755 2.94292 7.22724 2.36966 8.65315 2.1374C10.0791 1.90514 11.5571 2.0243 12.9003 2.47983C14.2435 2.93536 15.3916 3.70678 16.1993 4.69656C17.0071 5.68633 17.4381 6.84998 17.4381 8.04037C17.4381 9.23077 17.0071 10.3944 16.1993 11.3842C15.3916 12.374 14.2435 13.1454 12.9003 13.6009C11.5571 14.0565 10.0791 14.1756 8.65315 13.9434C7.22724 13.7111 5.91755 13.1378 4.88955 12.2961C4.20586 11.7377 3.66336 11.0744 3.29324 10.3442C2.92313 9.6139 2.73258 8.83102 2.73258 8.04037C2.73258 7.24973 2.92313 6.46686 3.29324 5.7366C3.66336 5.00634 4.20586 4.34303 4.88955 3.78469ZM17.0181 13.7155C17.2457 13.5289 17.516 13.381 17.8135 13.28C18.1109 13.179 18.4297 13.1271 18.7517 13.1271C19.0737 13.1271 19.3926 13.179 19.69 13.28C19.9875 13.381 20.2578 13.5289 20.4853 13.7155L23.9401 16.5533C24.1889 16.7349 24.3899 16.9561 24.5307 17.2035C24.6715 17.4509 24.7491 17.7191 24.7589 17.9919C24.7687 18.2647 24.7105 18.5363 24.5877 18.79C24.4649 19.0437 24.2801 19.2742 24.0448 19.4675C23.8094 19.6607 23.5283 19.8126 23.2188 19.9139C22.9093 20.0151 22.5778 20.0636 22.2446 20.0564C21.9115 20.0491 21.5836 19.9863 21.2811 19.8717C20.9786 19.7572 20.7078 19.5933 20.4853 19.3901L17.0181 16.5533C16.7903 16.367 16.6096 16.1457 16.4863 15.9021C16.363 15.6586 16.2995 15.3975 16.2995 15.1339C16.2995 14.8702 16.363 14.6091 16.4863 14.3656C16.6096 14.122 16.7903 13.9008 17.0181 13.7145V13.7155Z" fill="#629FDA"/>
</svg>
