<svg width="11" height="13" viewBox="0 0 11 13" fill="none" xmlns="http://www.w3.org/2000/svg">
<path fill-rule="evenodd" clip-rule="evenodd" d="M1.02403 0.785275C0.405243 1.1806 -1.34685 3.34676 1.9312 8.24227C5.38484 13.4086 8.67141 13.1919 9.33043 12.8454L7.00159 9.46073C6.45291 9.73692 5.98778 9.27652 5.13184 8.28008C5.1172 8.27467 3.4614 5.87579 3.45591 5.84871C3.1139 5.20428 2.83773 4.5435 3.41323 4.25107L1.02403 0.785275ZM10.7509 12.1306C10.8081 12.1024 10.8582 12.0641 10.8983 12.0182C10.9384 11.9724 10.9676 11.9197 10.9842 11.8635C11.0008 11.8074 11.0043 11.7488 10.9947 11.6914C10.9851 11.634 10.9626 11.5788 10.9283 11.5293C10.9283 11.5293 9.10976 8.89209 9.10915 8.88667C9.03676 8.78744 8.92448 8.71653 8.79521 8.68835C8.66593 8.66018 8.52942 8.67696 8.41355 8.73516L7.29971 9.30367L9.63406 12.6991L10.7479 12.1306H10.7509ZM4.83189 3.53078C4.8892 3.50273 4.93949 3.46474 4.97976 3.41893C5.02003 3.37312 5.04945 3.32069 5.0662 3.26451C5.08295 3.20832 5.08672 3.14961 5.07725 3.0921C5.06778 3.03459 5.04529 2.97932 5.01113 2.92975C5.01113 2.92975 3.14074 0.216766 3.13952 0.216766C3.06882 0.11604 2.95705 0.0434811 2.82755 0.0142174C2.69805 -0.0150463 2.5608 0.00122601 2.44451 0.0596982L1.33008 0.628208L3.71683 4.09956C3.71683 4.09956 4.83066 3.5362 4.83066 3.53078H4.83189Z" fill="white"/>
</svg>
